<svg width="259" height="87" viewBox="0 0 259 87" fill="none" xmlns="http://www.w3.org/2000/svg">
<path d="M6.216 86.799C4.302 86.799 2.939 86.219 2.127 85.059C1.257 83.899 0.822 82.333 0.822 80.361C0.822 78.911 1.054 77.171 1.518 75.141C2.504 71.197 3.78 67.369 5.346 63.657C6.854 60.003 8.536 56.378 10.392 52.782C12.248 49.302 14.22 45.445 16.308 41.211C18.454 36.977 20.716 32.685 23.094 28.335C25.53 23.985 28.053 19.925 30.663 16.155C31.533 14.937 32.577 13.487 33.795 11.805C35.071 10.065 36.492 8.354 38.058 6.672C39.682 4.99 41.422 3.598 43.278 2.496C45.134 1.336 47.048 0.755996 49.02 0.755996C50.644 0.755996 51.775 1.104 52.413 1.8C53.109 2.496 53.457 3.424 53.457 4.584C53.457 5.686 53.196 6.962 52.674 8.412C52.152 9.862 51.456 11.37 50.586 12.936C49.252 15.256 47.454 17.808 45.192 20.592C42.988 23.318 40.465 26.015 37.623 28.683C34.839 31.293 31.939 33.671 28.923 35.817C25.965 37.905 23.094 39.471 20.31 40.515C19.266 42.545 18.222 44.575 17.178 46.605C16.192 48.635 15.235 50.636 14.307 52.608C15.815 51.68 17.468 50.926 19.266 50.346C21.122 49.766 22.891 49.476 24.573 49.476C26.603 49.476 28.343 50.056 29.793 51.216C31.301 52.318 32.055 54.319 32.055 57.219C32.055 59.423 31.562 61.859 30.576 64.527C29.648 67.195 28.343 69.834 26.661 72.444C24.979 75.054 23.036 77.432 20.832 79.578C18.628 81.782 16.279 83.522 13.785 84.798C11.291 86.132 8.768 86.799 6.216 86.799ZM31.968 20.505C30.402 22.767 28.836 25.232 27.27 27.9C25.704 30.568 24.167 33.323 22.659 36.165C25.037 34.831 27.444 33.178 29.88 31.206C32.374 29.234 34.752 27.088 37.014 24.768C39.334 22.448 41.422 20.099 43.278 17.721C45.134 15.343 46.671 13.052 47.889 10.848C49.281 8.412 49.977 6.556 49.977 5.28C49.977 4.294 49.513 3.801 48.585 3.801C47.193 3.801 45.685 4.468 44.061 5.802C42.495 7.078 40.929 8.673 39.363 10.587C37.797 12.443 36.347 14.299 35.013 16.155C33.737 17.953 32.722 19.403 31.968 20.505ZM4.389 80.187C4.389 81.289 4.592 82.159 4.998 82.797C5.404 83.493 6.071 83.841 6.999 83.841C8.797 83.841 10.682 83.203 12.654 81.927C14.626 80.709 16.54 79.085 18.396 77.055C20.31 75.083 22.021 72.908 23.529 70.53C25.037 68.152 26.226 65.803 27.096 63.483C28.024 61.221 28.488 59.191 28.488 57.393C28.488 55.711 27.995 54.551 27.009 53.913C26.081 53.217 24.892 52.869 23.442 52.869C22.05 52.869 20.6 53.101 19.092 53.565C17.584 54.029 16.163 54.609 14.829 55.305C13.553 56.001 12.567 56.697 11.871 57.393C10.595 60.003 9.319 62.845 8.043 65.919C6.767 69.051 5.723 72.444 4.911 76.098C4.563 77.548 4.389 78.911 4.389 80.187ZM42.1932 55.479C40.2212 55.479 38.8292 54.928 38.0172 53.826C37.2052 52.666 36.7992 51.245 36.7992 49.563C36.7992 48.171 37.0022 46.663 37.4082 45.039C37.8722 43.357 38.4522 41.704 39.1482 40.08C39.2062 37.818 39.8152 35.585 40.9752 33.381C42.1932 31.177 43.8172 29.35 45.8472 27.9C47.9352 26.45 50.3712 25.725 53.1552 25.725C55.8812 25.725 57.7662 26.508 58.8102 28.074C59.9122 29.64 60.4632 31.496 60.4632 33.642C60.4632 34.918 60.3182 36.223 60.0282 37.557C59.7382 38.833 59.3612 40.051 58.8972 41.211C58.4332 42.371 57.8532 43.56 57.1572 44.778C56.4612 45.938 55.6782 47.098 54.8082 48.258C56.5482 47.968 58.0562 47.417 59.3322 46.605C60.6662 45.735 62.0002 44.546 63.3342 43.038C64.6682 41.53 66.2342 39.616 68.0322 37.296C68.3802 36.89 68.7572 36.687 69.1632 36.687C69.6272 36.687 70.0042 36.832 70.2942 37.122C70.6422 37.412 70.8162 37.789 70.8162 38.253C70.8162 38.601 70.7002 38.92 70.4682 39.21C68.7862 41.53 67.0752 43.618 65.3352 45.474C63.6532 47.33 61.7392 48.78 59.5932 49.824C57.4472 50.868 54.8662 51.39 51.8502 51.39C50.4582 52.608 48.9502 53.594 47.3262 54.348C45.7022 55.102 43.9912 55.479 42.1932 55.479ZM47.2392 32.946C46.5432 33.468 45.7022 34.512 44.7162 36.078C43.7302 37.644 42.8312 39.355 42.0192 41.211C42.1352 43.009 42.8602 44.633 44.1942 46.083C45.5862 47.475 47.7032 48.258 50.5452 48.432C52.6332 46.402 54.3152 44.024 55.5912 41.298C56.8672 38.514 57.5052 36.02 57.5052 33.816C57.5052 32.308 57.1572 31.09 56.4612 30.162C55.7652 29.234 54.6632 28.77 53.1552 28.77C52.1112 28.77 51.0962 28.944 50.1102 29.292C49.1242 29.64 48.2252 30.104 47.4132 30.684C47.7032 30.974 47.8482 31.322 47.8482 31.728C47.8482 32.192 47.6452 32.598 47.2392 32.946ZM39.8442 49.389C39.8442 50.317 40.0182 51.071 40.3662 51.651C40.7722 52.173 41.3812 52.434 42.1932 52.434C43.8752 52.434 45.5862 51.912 47.3262 50.868C45.6442 50.462 44.2232 49.824 43.0632 48.954C41.9032 48.026 41.0042 46.982 40.3662 45.822C40.0182 47.214 39.8442 48.403 39.8442 49.389ZM69.8055 55.479C67.8335 55.479 66.4415 54.928 65.6295 53.826C64.8175 52.666 64.4115 51.245 64.4115 49.563C64.4115 48.171 64.6145 46.663 65.0205 45.039C65.4845 43.357 66.0645 41.704 66.7605 40.08C66.8185 37.818 67.4275 35.585 68.5875 33.381C69.8055 31.177 71.4295 29.35 73.4595 27.9C75.5475 26.45 77.9835 25.725 80.7675 25.725C83.4935 25.725 85.3785 26.508 86.4225 28.074C87.5245 29.64 88.0755 31.496 88.0755 33.642C88.0755 34.918 87.9305 36.223 87.6405 37.557C87.3505 38.833 86.9735 40.051 86.5095 41.211C86.0455 42.371 85.4655 43.56 84.7695 44.778C84.0735 45.938 83.2905 47.098 82.4205 48.258C84.1605 47.968 85.6685 47.417 86.9445 46.605C88.2785 45.735 89.6125 44.546 90.9465 43.038C92.2805 41.53 93.8465 39.616 95.6445 37.296C95.9925 36.89 96.3695 36.687 96.7755 36.687C97.2395 36.687 97.6165 36.832 97.9065 37.122C98.2545 37.412 98.4285 37.789 98.4285 38.253C98.4285 38.601 98.3125 38.92 98.0805 39.21C96.3985 41.53 94.6875 43.618 92.9475 45.474C91.2655 47.33 89.3515 48.78 87.2055 49.824C85.0595 50.868 82.4785 51.39 79.4625 51.39C78.0705 52.608 76.5625 53.594 74.9385 54.348C73.3145 55.102 71.6035 55.479 69.8055 55.479ZM74.8515 32.946C74.1555 33.468 73.3145 34.512 72.3285 36.078C71.3425 37.644 70.4435 39.355 69.6315 41.211C69.7475 43.009 70.4725 44.633 71.8065 46.083C73.1985 47.475 75.3155 48.258 78.1575 48.432C80.2455 46.402 81.9275 44.024 83.2035 41.298C84.4795 38.514 85.1175 36.02 85.1175 33.816C85.1175 32.308 84.7695 31.09 84.0735 30.162C83.3775 29.234 82.2755 28.77 80.7675 28.77C79.7235 28.77 78.7085 28.944 77.7225 29.292C76.7365 29.64 75.8375 30.104 75.0255 30.684C75.3155 30.974 75.4605 31.322 75.4605 31.728C75.4605 32.192 75.2575 32.598 74.8515 32.946ZM67.4565 49.389C67.4565 50.317 67.6305 51.071 67.9785 51.651C68.3845 52.173 68.9935 52.434 69.8055 52.434C71.4875 52.434 73.1985 51.912 74.9385 50.868C73.2565 50.462 71.8355 49.824 70.6755 48.954C69.5155 48.026 68.6165 46.982 67.9785 45.822C67.6305 47.214 67.4565 48.403 67.4565 49.389ZM95.1558 54.435C93.5318 54.435 92.3138 53.971 91.5018 53.043C90.7478 52.057 90.3708 50.839 90.3708 49.389C90.3708 47.765 90.8348 45.88 91.7628 43.734C92.7488 41.53 94.0248 39.268 95.5908 36.948C97.1568 34.628 98.8678 32.482 100.724 30.51C102.638 28.48 104.552 26.856 106.466 25.638C108.38 24.362 110.149 23.724 111.773 23.724C112.933 23.724 114.064 23.927 115.166 24.333C116.326 24.681 117.196 25.435 117.776 26.595C119.226 23.231 120.966 19.896 122.996 16.59C125.026 13.226 127.114 10.21 129.26 7.542C131.464 4.874 133.552 2.873 135.524 1.539C136.974 0.552998 138.279 0.0599996 139.439 0.0599996C140.367 0.0599996 141.092 0.378999 141.614 1.017C142.194 1.597 142.484 2.496 142.484 3.714C142.484 6.034 141.846 8.499 140.57 11.109C139.352 13.719 137.728 16.329 135.698 18.939C133.668 21.549 131.464 24.101 129.086 26.595C126.766 29.031 124.504 31.322 122.3 33.468C120.096 35.556 118.182 37.383 116.558 38.949C115.63 40.515 114.731 42.342 113.861 44.43C113.049 46.46 112.643 48.171 112.643 49.563C112.643 51.129 113.252 51.912 114.47 51.912C115.456 51.912 116.935 51.448 118.907 50.52C120.937 49.534 122.909 48.2 124.823 46.518C125.983 45.532 127.056 44.488 128.042 43.386C129.028 42.284 129.956 41.269 130.826 40.341C131.058 40.051 131.348 39.906 131.696 39.906C131.986 39.906 132.247 40.08 132.479 40.428C132.769 40.718 132.914 41.095 132.914 41.559C132.914 42.081 132.769 42.516 132.479 42.864C131.609 44.082 130.391 45.445 128.825 46.953C127.317 48.403 125.983 49.563 124.823 50.433C122.619 52.057 120.241 53.275 117.689 54.087C116.123 54.609 114.731 54.87 113.513 54.87C110.323 54.87 108.728 53.275 108.728 50.085C108.728 48.751 109.018 47.243 109.598 45.561C109.598 45.503 109.627 45.445 109.685 45.387C107.887 46.895 106.031 48.345 104.117 49.737C102.261 51.129 100.521 52.26 98.8968 53.13C97.2728 54 96.0258 54.435 95.1558 54.435ZM117.95 33.033C118.53 32.569 119.545 31.641 120.995 30.249C122.445 28.857 124.098 27.204 125.954 25.29C127.868 23.318 129.753 21.201 131.609 18.939C133.465 16.677 135.089 14.415 136.481 12.153C137.873 9.891 138.83 7.774 139.352 5.802C139.41 5.57 139.439 5.28 139.439 4.932C139.439 4.062 139.091 3.627 138.395 3.627C137.525 3.627 136.51 4.207 135.35 5.367C133.088 7.571 130.884 10.239 128.738 13.371C126.65 16.445 124.678 19.693 122.822 23.115C121.024 26.479 119.4 29.785 117.95 33.033ZM94.8948 51.564C95.7068 51.564 96.7508 51.187 98.0268 50.433C99.3608 49.679 100.782 48.722 102.29 47.562C103.798 46.402 105.277 45.184 106.727 43.908C108.235 42.632 109.569 41.443 110.729 40.341C111.889 39.239 112.759 38.398 113.339 37.818L115.949 30.423C115.543 28.915 114.934 27.929 114.122 27.465C113.31 27.001 112.527 26.769 111.773 26.769C110.613 26.769 109.25 27.349 107.684 28.509C106.118 29.669 104.523 31.148 102.899 32.946C101.275 34.744 99.7378 36.687 98.2878 38.775C96.8958 40.805 95.7648 42.777 94.8948 44.691C94.0248 46.547 93.5898 48.084 93.5898 49.302C93.5898 49.882 93.6768 50.404 93.8508 50.868C94.0828 51.332 94.4308 51.564 94.8948 51.564ZM135.503 55.305C133.705 55.305 132.168 54.754 130.892 53.652C129.674 52.55 129.065 50.636 129.065 47.91C129.065 46.054 129.529 43.879 130.457 41.385C131.443 38.891 132.748 36.484 134.372 34.164C135.996 31.786 137.794 29.843 139.766 28.335C141.738 26.769 143.739 25.986 145.769 25.986C147.103 25.986 148.089 26.479 148.727 27.465C149.423 28.393 149.771 29.524 149.771 30.858C149.771 32.83 149.133 34.744 147.857 36.6C146.581 38.456 144.957 39.964 142.985 41.124C141.071 42.284 139.157 42.864 137.243 42.864C135.677 42.864 134.488 42.371 133.676 41.385C133.212 42.545 132.835 43.676 132.545 44.778C132.255 45.88 132.11 46.924 132.11 47.91C132.11 49.592 132.458 50.781 133.154 51.477C133.908 52.115 134.836 52.434 135.938 52.434C137.272 52.434 138.751 52.086 140.375 51.39C142.057 50.694 143.623 49.882 145.073 48.954C146.523 47.968 147.596 47.156 148.292 46.518C149.452 45.532 150.554 44.459 151.598 43.299C152.7 42.081 153.657 40.95 154.469 39.906C154.759 39.558 155.078 39.384 155.426 39.384C155.774 39.384 156.064 39.558 156.296 39.906C156.586 40.196 156.731 40.573 156.731 41.037C156.731 41.443 156.586 41.849 156.296 42.255C155.368 43.415 154.208 44.749 152.816 46.257C151.482 47.707 149.974 49.07 148.292 50.346C147.364 51.1 146.175 51.854 144.725 52.608C143.275 53.362 141.738 54 140.114 54.522C138.548 55.044 137.011 55.305 135.503 55.305ZM137.069 40.08C138.229 40.08 139.476 39.703 140.81 38.949C142.202 38.195 143.42 37.209 144.464 35.991C145.566 34.715 146.291 33.352 146.639 31.902C146.697 31.786 146.726 31.641 146.726 31.467C146.726 31.293 146.726 31.148 146.726 31.032C146.726 29.988 146.349 29.466 145.595 29.466C144.377 29.466 143.101 29.93 141.767 30.858C140.433 31.728 139.157 32.917 137.939 34.425C136.779 35.875 135.735 37.47 134.807 39.21C135.039 39.384 135.271 39.558 135.503 39.732C135.735 39.848 135.967 39.935 136.199 39.993C136.315 40.051 136.46 40.08 136.634 40.08C136.808 40.08 136.953 40.08 137.069 40.08ZM157.212 55.044C155.24 55.044 153.877 54.551 153.123 53.565C152.369 52.579 151.992 51.303 151.992 49.737C151.992 48.229 152.253 46.576 152.775 44.778C153.355 42.922 154.022 41.124 154.776 39.384C155.588 37.644 156.371 36.136 157.125 34.86C157.879 33.526 158.459 32.627 158.865 32.163C159.039 30.133 159.648 28.625 160.692 27.639C161.736 26.595 162.635 26.073 163.389 26.073C163.737 26.073 163.998 26.16 164.172 26.334C164.636 26.798 164.868 27.32 164.868 27.9C164.868 28.654 164.52 29.611 163.824 30.771C163.128 31.931 162.084 33.468 160.692 35.382C160.518 35.614 160.141 36.223 159.561 37.209C158.981 38.195 158.372 39.384 157.734 40.776C157.096 42.168 156.545 43.589 156.081 45.039C155.617 46.489 155.385 47.765 155.385 48.867C155.385 50.781 156.226 51.738 157.908 51.738C159.706 51.738 161.475 51.071 163.215 49.737C165.013 48.403 166.666 46.721 168.174 44.691C169.74 42.603 171.103 40.428 172.263 38.166C173.481 35.846 174.409 33.7 175.047 31.728C175.743 29.756 176.091 28.219 176.091 27.117C176.091 26.537 176.033 26.16 175.917 25.986C175.685 25.58 175.569 25.174 175.569 24.768C175.569 24.246 175.743 23.84 176.091 23.55C176.439 23.26 176.816 23.115 177.222 23.115C178.092 23.115 178.73 23.579 179.136 24.507C179.368 24.971 179.484 25.667 179.484 26.595C179.484 28.219 179.078 30.249 178.266 32.685C177.512 35.063 176.41 37.557 174.96 40.167C173.568 42.719 171.944 45.126 170.088 47.388C168.232 49.65 166.202 51.506 163.998 52.956C161.794 54.348 159.532 55.044 157.212 55.044ZM195.508 26.943C194.812 26.943 194.174 26.711 193.594 26.247C193.072 25.725 192.811 25.087 192.811 24.333C192.811 23.521 193.072 22.854 193.594 22.332C194.116 21.81 194.754 21.549 195.508 21.549C196.32 21.549 196.987 21.81 197.509 22.332C198.031 22.854 198.292 23.521 198.292 24.333C198.292 25.087 198.002 25.725 197.422 26.247C196.9 26.711 196.262 26.943 195.508 26.943ZM182.632 53.043C181.878 53.043 181.269 52.84 180.805 52.434C180.341 51.97 180.109 51.245 180.109 50.259C180.109 49.041 180.399 47.562 180.979 45.822C181.559 44.024 182.313 42.197 183.241 40.341C184.169 38.427 185.155 36.687 186.199 35.121C187.301 33.497 188.345 32.221 189.331 31.293C189.737 30.887 190.23 30.684 190.81 30.684C191.274 30.684 191.68 30.8 192.028 31.032C192.376 31.264 192.55 31.554 192.55 31.902C192.55 32.192 192.405 32.482 192.115 32.772C191.709 33.178 191.187 33.845 190.549 34.773C189.969 35.643 189.389 36.571 188.809 37.557C188.229 38.485 187.794 39.268 187.504 39.906C186.982 41.008 186.402 42.255 185.764 43.647C185.126 45.039 184.662 46.17 184.372 47.04C184.198 47.62 184.111 48.055 184.111 48.345C184.111 48.983 184.343 49.302 184.807 49.302C185.213 49.302 185.677 49.128 186.199 48.78C186.721 48.374 187.185 48.026 187.591 47.736C189.041 46.576 190.375 45.358 191.593 44.082C192.869 42.748 194.029 41.501 195.073 40.341C195.305 40.051 195.595 39.906 195.943 39.906C196.233 39.906 196.494 40.08 196.726 40.428C197.016 40.718 197.161 41.095 197.161 41.559C197.161 42.081 197.016 42.516 196.726 42.864C195.856 44.082 194.638 45.445 193.072 46.953C191.564 48.403 190.23 49.563 189.07 50.433C188.316 51.013 187.301 51.593 186.025 52.173C184.807 52.753 183.676 53.043 182.632 53.043ZM196.514 54.435C194.89 54.435 193.672 53.971 192.86 53.043C192.106 52.057 191.729 50.839 191.729 49.389C191.729 47.765 192.193 45.88 193.121 43.734C194.107 41.53 195.383 39.268 196.949 36.948C198.515 34.628 200.226 32.482 202.082 30.51C203.996 28.48 205.91 26.856 207.824 25.638C209.738 24.362 211.507 23.724 213.131 23.724C214.291 23.724 215.422 23.927 216.524 24.333C217.684 24.681 218.554 25.435 219.134 26.595C220.584 23.231 222.324 19.896 224.354 16.59C226.384 13.226 228.472 10.21 230.618 7.542C232.822 4.874 234.91 2.873 236.882 1.539C238.332 0.552998 239.637 0.0599996 240.797 0.0599996C241.725 0.0599996 242.45 0.378999 242.972 1.017C243.552 1.597 243.842 2.496 243.842 3.714C243.842 6.034 243.204 8.499 241.928 11.109C240.71 13.719 239.086 16.329 237.056 18.939C235.026 21.549 232.822 24.101 230.444 26.595C228.124 29.031 225.862 31.322 223.658 33.468C221.454 35.556 219.54 37.383 217.916 38.949C216.988 40.515 216.089 42.342 215.219 44.43C214.407 46.46 214.001 48.171 214.001 49.563C214.001 51.129 214.61 51.912 215.828 51.912C216.814 51.912 218.293 51.448 220.265 50.52C222.295 49.534 224.267 48.2 226.181 46.518C227.341 45.532 228.414 44.488 229.4 43.386C230.386 42.284 231.314 41.269 232.184 40.341C232.416 40.051 232.706 39.906 233.054 39.906C233.344 39.906 233.605 40.08 233.837 40.428C234.127 40.718 234.272 41.095 234.272 41.559C234.272 42.081 234.127 42.516 233.837 42.864C232.967 44.082 231.749 45.445 230.183 46.953C228.675 48.403 227.341 49.563 226.181 50.433C223.977 52.057 221.599 53.275 219.047 54.087C217.481 54.609 216.089 54.87 214.871 54.87C211.681 54.87 210.086 53.275 210.086 50.085C210.086 48.751 210.376 47.243 210.956 45.561C210.956 45.503 210.985 45.445 211.043 45.387C209.245 46.895 207.389 48.345 205.475 49.737C203.619 51.129 201.879 52.26 200.255 53.13C198.631 54 197.384 54.435 196.514 54.435ZM219.308 33.033C219.888 32.569 220.903 31.641 222.353 30.249C223.803 28.857 225.456 27.204 227.312 25.29C229.226 23.318 231.111 21.201 232.967 18.939C234.823 16.677 236.447 14.415 237.839 12.153C239.231 9.891 240.188 7.774 240.71 5.802C240.768 5.57 240.797 5.28 240.797 4.932C240.797 4.062 240.449 3.627 239.753 3.627C238.883 3.627 237.868 4.207 236.708 5.367C234.446 7.571 232.242 10.239 230.096 13.371C228.008 16.445 226.036 19.693 224.18 23.115C222.382 26.479 220.758 29.785 219.308 33.033ZM196.253 51.564C197.065 51.564 198.109 51.187 199.385 50.433C200.719 49.679 202.14 48.722 203.648 47.562C205.156 46.402 206.635 45.184 208.085 43.908C209.593 42.632 210.927 41.443 212.087 40.341C213.247 39.239 214.117 38.398 214.697 37.818L217.307 30.423C216.901 28.915 216.292 27.929 215.48 27.465C214.668 27.001 213.885 26.769 213.131 26.769C211.971 26.769 210.608 27.349 209.042 28.509C207.476 29.669 205.881 31.148 204.257 32.946C202.633 34.744 201.096 36.687 199.646 38.775C198.254 40.805 197.123 42.777 196.253 44.691C195.383 46.547 194.948 48.084 194.948 49.302C194.948 49.882 195.035 50.404 195.209 50.868C195.441 51.332 195.789 51.564 196.253 51.564ZM236.861 55.305C235.063 55.305 233.526 54.754 232.25 53.652C231.032 52.55 230.423 50.636 230.423 47.91C230.423 46.054 230.887 43.879 231.815 41.385C232.801 38.891 234.106 36.484 235.73 34.164C237.354 31.786 239.152 29.843 241.124 28.335C243.096 26.769 245.097 25.986 247.127 25.986C248.461 25.986 249.447 26.479 250.085 27.465C250.781 28.393 251.129 29.524 251.129 30.858C251.129 32.83 250.491 34.744 249.215 36.6C247.939 38.456 246.315 39.964 244.343 41.124C242.429 42.284 240.515 42.864 238.601 42.864C237.035 42.864 235.846 42.371 235.034 41.385C234.57 42.545 234.193 43.676 233.903 44.778C233.613 45.88 233.468 46.924 233.468 47.91C233.468 49.592 233.816 50.781 234.512 51.477C235.266 52.115 236.194 52.434 237.296 52.434C238.63 52.434 240.109 52.086 241.733 51.39C243.415 50.694 244.981 49.882 246.431 48.954C247.881 47.968 248.954 47.156 249.65 46.518C250.81 45.532 251.912 44.459 252.956 43.299C254.058 42.081 255.015 40.95 255.827 39.906C256.117 39.558 256.436 39.384 256.784 39.384C257.132 39.384 257.422 39.558 257.654 39.906C257.944 40.196 258.089 40.573 258.089 41.037C258.089 41.443 257.944 41.849 257.654 42.255C256.726 43.415 255.566 44.749 254.174 46.257C252.84 47.707 251.332 49.07 249.65 50.346C248.722 51.1 247.533 51.854 246.083 52.608C244.633 53.362 243.096 54 241.472 54.522C239.906 55.044 238.369 55.305 236.861 55.305ZM238.427 40.08C239.587 40.08 240.834 39.703 242.168 38.949C243.56 38.195 244.778 37.209 245.822 35.991C246.924 34.715 247.649 33.352 247.997 31.902C248.055 31.786 248.084 31.641 248.084 31.467C248.084 31.293 248.084 31.148 248.084 31.032C248.084 29.988 247.707 29.466 246.953 29.466C245.735 29.466 244.459 29.93 243.125 30.858C241.791 31.728 240.515 32.917 239.297 34.425C238.137 35.875 237.093 37.47 236.165 39.21C236.397 39.384 236.629 39.558 236.861 39.732C237.093 39.848 237.325 39.935 237.557 39.993C237.673 40.051 237.818 40.08 237.992 40.08C238.166 40.08 238.311 40.08 238.427 40.08Z" fill="black"/>
</svg>
